<?xml version="1.0" encoding="UTF-8"?>
<!DOCTYPE svg PUBLIC "-//W3C//DTD SVG 1.1//EN" "http://www.w3.org/Graphics/SVG/1.1/DTD/svg11.dtd">
<svg xmlns="http://www.w3.org/2000/svg" version="1.1" width="370px" height="111px" style="shape-rendering:geometricPrecision; text-rendering:geometricPrecision; image-rendering:optimizeQuality; fill-rule:evenodd; clip-rule:evenodd" xmlns:xlink="http://www.w3.org/1999/xlink">
<g><path style="opacity:0.993" fill="#f6f5fb" d="M 162.5,40.5 C 161.815,38.5856 161.315,36.5856 161,34.5C 159.512,36.16 157.679,37.16 155.5,37.5C 161.146,31.955 160.813,26.7883 154.5,22C 149.466,20.5722 144.466,20.4056 139.5,21.5C 141.461,16.1224 139.461,14.1224 133.5,15.5C 133.5,31.1667 133.5,46.8333 133.5,62.5C 135.099,62.2322 136.432,62.5655 137.5,63.5C 135.833,63.5 134.167,63.5 132.5,63.5C 132.5,47.1667 132.5,30.8333 132.5,14.5C 142.117,12.5086 151.45,13.3419 160.5,17C 168.87,24.3687 169.537,32.202 162.5,40.5 Z M 155.5,37.5 C 150.213,38.3424 144.88,38.6757 139.5,38.5C 140.833,32.8333 140.833,27.1667 139.5,21.5C 144.466,20.4056 149.466,20.5722 154.5,22C 160.813,26.7883 161.146,31.955 155.5,37.5 Z"/></g>
<g><path style="opacity:0.999" fill="#f6f5fa" d="M 321.5,32.5 C 321.286,30.8561 321.62,29.3561 322.5,28C 321.333,26.8333 320.167,25.6667 319,24.5C 317.961,25.7101 316.794,26.7101 315.5,27.5C 323.046,13.2721 334.379,9.43881 349.5,16C 350.973,18.6079 350.473,20.7746 348,22.5C 335.57,17.3534 326.737,20.6868 321.5,32.5 Z"/></g>
<g><path style="opacity:0.498" fill="#a93b4d" d="M 107.5,27.5 C 112.103,28.3833 116.77,28.7166 121.5,28.5C 121.793,24.5633 121.46,20.73 120.5,17C 114.843,16.5006 109.176,16.3339 103.5,16.5C 103.5,19.1667 103.5,21.8333 103.5,24.5C 102.523,21.7131 102.19,18.7131 102.5,15.5C 108.878,14.6232 115.212,14.4566 121.5,15C 122.469,19.7367 122.803,24.57 122.5,29.5C 117.821,29.6658 113.155,29.4992 108.5,29C 107.944,28.6174 107.611,28.1174 107.5,27.5 Z"/></g>
<g><path style="opacity:0.945" fill="#fcfcfc" d="M 139.5,21.5 C 140.833,27.1667 140.833,32.8333 139.5,38.5C 143.072,40.6713 143.072,42.6713 139.5,44.5C 139.624,45.1067 139.957,45.44 140.5,45.5C 140.353,51.9093 139.353,57.9093 137.5,63.5C 136.432,62.5655 135.099,62.2322 133.5,62.5C 133.5,46.8333 133.5,31.1667 133.5,15.5C 139.461,14.1224 141.461,16.1224 139.5,21.5 Z"/></g>
<g><path style="opacity:0.988" fill="#f7f7fb" d="M 203.5,49.5 C 201.495,48.9612 199.495,48.2945 197.5,47.5C 199.176,46.2724 199.509,44.9391 198.5,43.5C 197.365,42.5255 196.365,41.3588 195.5,40C 194.167,40 192.833,40 191.5,40C 190.748,39.3292 190.414,38.4959 190.5,37.5C 199.105,37.9916 202.272,33.9916 200,25.5C 199.167,24 198,22.8333 196.5,22C 191.83,20.9589 187.33,20.4589 183,20.5C 182.333,26.5 182.333,32.5 183,38.5C 184.299,38.0338 185.799,38.0338 187.5,38.5C 187.103,39.6318 185.103,39.9651 181.5,39.5C 181.812,32.5778 181.479,25.7445 180.5,19C 181.5,18.6667 182.5,18.3333 183.5,18C 181.091,16.2932 178.425,15.4598 175.5,15.5C 184.562,12.5405 193.562,13.0405 202.5,17C 212.218,26.7499 211.551,35.7499 200.5,44C 201.741,45.7309 202.741,47.5642 203.5,49.5 Z M 190.5,37.5 C 189.209,37.2627 188.209,37.596 187.5,38.5C 185.799,38.0338 184.299,38.0338 183,38.5C 182.333,32.5 182.333,26.5 183,20.5C 187.33,20.4589 191.83,20.9589 196.5,22C 198,22.8333 199.167,24 200,25.5C 202.272,33.9916 199.105,37.9916 190.5,37.5 Z"/></g>
<g><path style="opacity:1" fill="#f9faf9" d="M 255.5,20.5 C 254.626,21.5251 253.459,22.1918 252,22.5C 248.252,19.879 244.085,18.2123 239.5,17.5C 236.049,19.953 232.382,20.6197 228.5,19.5C 228.433,18.0413 228.766,16.7079 229.5,15.5C 237.289,12.4842 244.955,12.9842 252.5,17C 253.71,18.0391 254.71,19.2058 255.5,20.5 Z"/></g>
<g><path style="opacity:1" fill="#b33d4e" d="M 70.5,31.5 C 69.5128,26.6946 69.1795,21.6946 69.5,16.5C 63.8333,16.5 58.1667,16.5 52.5,16.5C 52.5,17.8333 52.5,19.1667 52.5,20.5C 54.1439,20.2865 55.6439,20.6198 57,21.5C 58.6772,24.9871 60.5105,28.3205 62.5,31.5C 57.1493,27.149 52.4827,22.149 48.5,16.5C 50.879,14.9581 53.5457,14.2914 56.5,14.5C 61.0815,15.4269 65.5815,15.7603 70,15.5C 70.346,17.2182 70.846,18.8849 71.5,20.5C 71.6327,24.1328 71.2993,27.7995 70.5,31.5 Z"/></g>
<g><path style="opacity:0.993" fill="#f9fafb" d="M 295.5,24.5 C 295.675,26.6208 295.341,28.6208 294.5,30.5C 296.019,33.2768 295.352,35.2768 292.5,36.5C 291.345,32.2025 289.679,28.2025 287.5,24.5C 286.761,24.631 286.094,24.4643 285.5,24C 285.07,23.0805 284.736,22.2472 284.5,21.5C 283.833,23.8333 283.167,26.1667 282.5,28.5C 281.28,28.1131 280.613,27.2798 280.5,26C 281.609,23.9534 282.276,21.7867 282.5,19.5C 283.038,17.8828 283.371,16.2161 283.5,14.5C 286.247,14.1866 288.914,14.52 291.5,15.5C 293.12,18.4037 294.453,21.4037 295.5,24.5 Z"/></g>
<g><path style="opacity:1" fill="#f8f9fb" d="M 175.5,15.5 C 178.425,15.4598 181.091,16.2932 183.5,18C 182.5,18.3333 181.5,18.6667 180.5,19C 181.479,25.7445 181.812,32.5778 181.5,39.5C 185.103,39.9651 187.103,39.6318 187.5,38.5C 188.209,37.596 189.209,37.2627 190.5,37.5C 190.414,38.4959 190.748,39.3292 191.5,40C 192.833,40 194.167,40 195.5,40C 196.365,41.3588 197.365,42.5255 198.5,43.5C 196.097,43.448 193.764,43.7814 191.5,44.5C 188.5,44.5 185.5,44.5 182.5,44.5C 182.5,50.8333 182.5,57.1667 182.5,63.5C 179.833,63.5 177.167,63.5 174.5,63.5C 174.17,47.3246 174.504,31.3246 175.5,15.5 Z"/></g>
<g><path style="opacity:0.993" fill="#f7f7fc" d="M 229.5,15.5 C 228.766,16.7079 228.433,18.0413 228.5,19.5C 232.382,20.6197 236.049,19.953 239.5,17.5C 244.085,18.2123 248.252,19.879 252,22.5C 253.459,22.1918 254.626,21.5251 255.5,20.5C 258.942,23.7118 261.109,27.7118 262,32.5C 262.814,37.0204 262.647,41.3537 261.5,45.5C 260.026,41.4813 259.359,37.4813 259.5,33.5C 258.304,33.8457 258.304,34.3457 259.5,35C 258.552,35.4828 257.552,35.6495 256.5,35.5C 255.484,38.1996 255.484,40.8663 256.5,43.5C 255.479,44.9014 254.479,46.2347 253.5,47.5C 255.717,39.0046 254.383,31.1712 249.5,24C 242.236,19.2753 235.07,19.442 228,24.5C 226.259,27.3093 225.092,30.3093 224.5,33.5C 223.732,32.7375 223.232,31.7375 223,30.5C 222.586,30.9574 222.086,31.2907 221.5,31.5C 220.833,30.5 220.167,29.5 219.5,28.5C 218.914,28.7093 218.414,29.0426 218,29.5C 216.809,34.7674 216.309,40.1007 216.5,45.5C 213.684,34.2898 216.684,24.7898 225.5,17C 226.745,16.2086 228.078,15.7086 229.5,15.5 Z"/></g>
<g><path style="opacity:0.247" fill="#5c1c3d" d="M 41.5,15.5 C 38.8127,15.3359 36.146,15.5026 33.5,16C 32.944,16.3826 32.6107,16.8826 32.5,17.5C 31.1394,19.5273 29.4727,21.194 27.5,22.5C 26.5269,24.9479 26.1936,27.6146 26.5,30.5C 25.7337,28.3157 25.0671,25.9823 24.5,23.5C 26.9614,18.376 30.9614,15.0427 36.5,13.5C 38.3361,14.0276 40.0028,14.6942 41.5,15.5 Z"/></g>
<g><path style="opacity:0.99" fill="#b93240" d="M 41.5,15.5 C 47.9908,20.7865 53.3241,27.1198 57.5,34.5C 55.4268,32.4202 53.0934,30.7536 50.5,29.5C 49.1667,28.0665 47.6667,26.7332 46,25.5C 45.3299,22.8261 44.1632,20.4927 42.5,18.5C 39.3752,17.5206 36.0419,17.1872 32.5,17.5C 32.6107,16.8826 32.944,16.3826 33.5,16C 36.146,15.5026 38.8127,15.3359 41.5,15.5 Z"/></g>
<g><path style="opacity:1" fill="#d12830" d="M 107.5,27.5 C 105.596,27.2624 104.262,26.2624 103.5,24.5C 103.5,21.8333 103.5,19.1667 103.5,16.5C 109.176,16.3339 114.843,16.5006 120.5,17C 121.46,20.73 121.793,24.5633 121.5,28.5C 116.77,28.7166 112.103,28.3833 107.5,27.5 Z"/></g>
<g><path style="opacity:1" fill="#d8262a" d="M 42.5,18.5 C 44.1632,20.4927 45.3299,22.8261 46,25.5C 47.6667,26.7332 49.1667,28.0665 50.5,29.5C 46.8209,32.8399 43.8209,36.8399 41.5,41.5C 40.675,42.3857 39.675,42.719 38.5,42.5C 38.724,39.4341 40.0573,36.9341 42.5,35C 41.3816,33.9264 40.3816,32.7598 39.5,31.5C 38.8333,32.5 38.1667,33.5 37.5,34.5C 35.3796,33.5967 35.0462,32.2633 36.5,30.5C 28.66,28.3056 27.66,24.4723 33.5,19C 36.4816,18.502 39.4816,18.3354 42.5,18.5 Z"/></g>
<g><path style="opacity:0.96" fill="#fafbfc" d="M 321.5,32.5 C 319.615,54.6096 329.282,62.2763 350.5,55.5C 350.698,57.5753 350.865,59.5753 351,61.5C 324.036,69.5197 311.702,59.5197 314,31.5C 314.21,29.9419 314.71,28.6085 315.5,27.5C 316.794,26.7101 317.961,25.7101 319,24.5C 320.167,25.6667 321.333,26.8333 322.5,28C 321.62,29.3561 321.286,30.8561 321.5,32.5 Z"/></g>
<g><path style="opacity:0.824" fill="#a02e44" d="M 27.5,22.5 C 27.3359,25.1873 27.5026,27.854 28,30.5C 31.3651,34.6932 34.8651,38.6932 38.5,42.5C 39.6005,43.6049 40.2671,44.9382 40.5,46.5C 35.4897,41.4882 30.823,36.1549 26.5,30.5C 26.1936,27.6146 26.5269,24.9479 27.5,22.5 Z"/></g>
<g><path style="opacity:1" fill="#d02d31" d="M 70.5,31.5 C 71.8333,32.8333 71.8333,34.1667 70.5,35.5C 69.2921,36.2341 67.9587,36.5674 66.5,36.5C 66.226,34.0194 64.8927,32.3527 62.5,31.5C 60.5105,28.3205 58.6772,24.9871 57,21.5C 55.6439,20.6198 54.1439,20.2865 52.5,20.5C 52.5,19.1667 52.5,17.8333 52.5,16.5C 58.1667,16.5 63.8333,16.5 69.5,16.5C 69.1795,21.6946 69.5128,26.6946 70.5,31.5 Z"/></g>
<g><path style="opacity:1" fill="#d52632" d="M 32.5,17.5 C 36.0419,17.1872 39.3752,17.5206 42.5,18.5C 39.4816,18.3354 36.4816,18.502 33.5,19C 27.66,24.4723 28.66,28.3056 36.5,30.5C 35.0462,32.2633 35.3796,33.5967 37.5,34.5C 38.1667,33.5 38.8333,32.5 39.5,31.5C 40.3816,32.7598 41.3816,33.9264 42.5,35C 40.0573,36.9341 38.724,39.4341 38.5,42.5C 34.8651,38.6932 31.3651,34.6932 28,30.5C 27.5026,27.854 27.3359,25.1873 27.5,22.5C 29.4727,21.194 31.1394,19.5273 32.5,17.5 Z"/></g>
<g><path style="opacity:0.557" fill="#b33847" d="M 82.5,62.5 C 87.3058,62.6039 91.9725,61.9372 96.5,60.5C 96.5,54.8333 96.5,49.1667 96.5,43.5C 101.13,42.7705 105.797,42.4372 110.5,42.5C 110.756,40.2075 110.423,38.0408 109.5,36C 105.848,35.5014 102.182,35.3347 98.5,35.5C 98.1667,34.8333 97.8333,34.1667 97.5,33.5C 96.712,27.9145 96.212,22.2479 96,16.5C 90.8787,15.2981 85.712,15.2981 80.5,16.5C 80.5,20.5 80.5,24.5 80.5,28.5C 80.5,37.1667 80.5,45.8333 80.5,54.5C 80.5,57.1667 80.5,59.8333 80.5,62.5C 79.169,55.0297 78.5023,47.1963 78.5,39C 78.6667,31.1667 78.8333,23.3333 79,15.5C 84.7504,14.3594 90.5837,14.1928 96.5,15C 97.8941,15.956 98.5607,17.2894 98.5,19C 98.2323,22.8347 97.899,26.668 97.5,30.5C 98,31.5 98.5,32.5 99,33.5C 102.886,33.2734 106.886,33.6067 111,34.5C 111.784,37.7603 111.617,40.9269 110.5,44C 106.514,44.4988 102.514,44.6655 98.5,44.5C 98.6661,50.1764 98.4994,55.8431 98,61.5C 92.8232,63.5648 87.6566,63.8981 82.5,62.5 Z"/></g>
<g><path style="opacity:1" fill="#d9242b" d="M 97.5,33.5 C 97.8333,34.1667 98.1667,34.8333 98.5,35.5C 97.325,35.281 96.325,35.6143 95.5,36.5C 95.8333,36.8333 96.1667,37.1667 96.5,37.5C 100.094,36.5741 103.76,36.2408 107.5,36.5C 107.688,38.1033 107.188,39.4366 106,40.5C 105.667,40.1667 105.333,39.8333 105,39.5C 102.595,40.2744 100.095,40.7744 97.5,41C 96.244,41.4169 95.5774,42.2502 95.5,43.5C 92.9455,44.388 90.2788,44.7214 87.5,44.5C 87.2213,39.4053 87.5546,34.4053 88.5,29.5C 89.866,29.0463 91.366,28.7129 93,28.5C 94.2692,29.9047 94.7692,31.5714 94.5,33.5C 95.5,33.5 96.5,33.5 97.5,33.5 Z"/></g>
<g><path style="opacity:1" fill="#d8252b" d="M 80.5,28.5 C 82.3519,29.0889 84.1852,29.7556 86,30.5C 86.3418,28.3808 87.1751,28.0474 88.5,29.5C 87.5546,34.4053 87.2213,39.4053 87.5,44.5C 90.2788,44.7214 92.9455,44.388 95.5,43.5C 95.665,46.8499 95.4983,50.1832 95,53.5C 94.6667,53.1667 94.3333,52.8333 94,52.5C 89.5378,54.2258 85.0378,54.8924 80.5,54.5C 80.5,45.8333 80.5,37.1667 80.5,28.5 Z"/></g>
<g><path style="opacity:1" fill="#d7252e" d="M 97.5,33.5 C 96.5,33.5 95.5,33.5 94.5,33.5C 94.7692,31.5714 94.2692,29.9047 93,28.5C 91.366,28.7129 89.866,29.0463 88.5,29.5C 87.1751,28.0474 86.3418,28.3808 86,30.5C 84.1852,29.7556 82.3519,29.0889 80.5,28.5C 80.5,24.5 80.5,20.5 80.5,16.5C 85.712,15.2981 90.8787,15.2981 96,16.5C 96.212,22.2479 96.712,27.9145 97.5,33.5 Z"/></g>
<g><path style="opacity:0.963" fill="#f9fafc" d="M 282.5,19.5 C 282.276,21.7867 281.609,23.9534 280.5,26C 280.613,27.2798 281.28,28.1131 282.5,28.5C 283.167,26.1667 283.833,23.8333 284.5,21.5C 284.736,22.2472 285.07,23.0805 285.5,24C 286.094,24.4643 286.761,24.631 287.5,24.5C 284.739,30.9477 282.072,37.4477 279.5,44C 282.146,44.4974 284.813,44.6641 287.5,44.5C 284.772,45.2052 281.939,45.8719 279,46.5C 278.586,46.0426 278.086,45.7093 277.5,45.5C 275.709,47.0208 274.376,48.8542 273.5,51C 274.448,51.4828 275.448,51.6495 276.5,51.5C 275.492,55.1944 274.325,58.8611 273,62.5C 270.619,63.435 268.119,63.7683 265.5,63.5C 270.003,48.316 275.669,33.6494 282.5,19.5 Z"/></g>
<g><path style="opacity:0.983" fill="#f9fafa" d="M 294.5,30.5 C 299.824,34.1734 301.491,39.1734 299.5,45.5C 300.5,45.5 301.5,45.5 302.5,45.5C 303.167,47.5 303.833,49.5 304.5,51.5C 302.5,51.5 300.5,51.5 298.5,51.5C 291.167,51.5 283.833,51.5 276.5,51.5C 275.448,51.6495 274.448,51.4828 273.5,51C 274.376,48.8542 275.709,47.0208 277.5,45.5C 278.086,45.7093 278.586,46.0426 279,46.5C 281.939,45.8719 284.772,45.2052 287.5,44.5C 290.247,44.8134 292.914,44.48 295.5,43.5C 294.688,41.0554 293.688,38.7221 292.5,36.5C 295.352,35.2768 296.019,33.2768 294.5,30.5 Z"/></g>
<g><path style="opacity:0.345" fill="#9b374c" d="M 62.5,31.5 C 64.8927,32.3527 66.226,34.0194 66.5,36.5C 67.9587,36.5674 69.2921,36.2341 70.5,35.5C 70.5,36.8333 70.5,38.1667 70.5,39.5C 69.448,39.6495 68.448,39.4828 67.5,39C 65.5854,36.6004 63.9188,34.1004 62.5,31.5 Z"/></g>
<g><path style="opacity:1" fill="#d42731" d="M 50.5,29.5 C 53.0934,30.7536 55.4268,32.4202 57.5,34.5C 61.8841,38.9057 66.0508,43.5723 70,48.5C 70.9274,51.8632 70.4274,54.8632 68.5,57.5C 67.1779,57.67 66.0113,57.3366 65,56.5C 64.51,57.7932 64.3433,59.1266 64.5,60.5C 61.1589,61.0053 57.8255,61.1719 54.5,61C 53.2899,59.9609 52.2899,58.7942 51.5,57.5C 53.8957,59.2121 56.5624,59.7121 59.5,59C 54.6837,57.3901 54.3504,55.0568 58.5,52C 57.8333,51.6667 57.1667,51.3333 56.5,51C 59.2784,49.6081 62.2784,49.1081 65.5,49.5C 65.5,48.5 65.5,47.5 65.5,46.5C 64.5,46.5 63.5,46.5 62.5,46.5C 62.347,41.8416 60.5137,40.8416 57,43.5C 50.3587,39.7911 48.0254,41.7911 50,49.5C 51.1581,49.9981 51.9915,50.8315 52.5,52C 51.8524,53.4397 51.5191,54.9397 51.5,56.5C 49.5,55.1667 47.5,53.8333 45.5,52.5C 43.4864,50.8171 41.8198,48.8171 40.5,46.5C 40.2671,44.9382 39.6005,43.6049 38.5,42.5C 39.675,42.719 40.675,42.3857 41.5,41.5C 43.8209,36.8399 46.8209,32.8399 50.5,29.5 Z"/></g>
<g><path style="opacity:0.977" fill="#f8f8fb" d="M 162.5,40.5 C 160.11,43.0283 157.11,44.5283 153.5,45C 149.179,45.499 144.846,45.6657 140.5,45.5C 139.957,45.44 139.624,45.1067 139.5,44.5C 143.072,42.6713 143.072,40.6713 139.5,38.5C 144.88,38.6757 150.213,38.3424 155.5,37.5C 157.679,37.16 159.512,36.16 161,34.5C 161.315,36.5856 161.815,38.5856 162.5,40.5 Z"/></g>
<g><path style="opacity:0.962" fill="#fafbfb" d="M 224.5,33.5 C 221.71,44.5804 225.377,52.5804 235.5,57.5C 238.625,58.4794 241.958,58.8128 245.5,58.5C 245.853,60.6348 245.02,61.9681 243,62.5C 234.938,63.3074 228.105,60.6408 222.5,54.5C 223.5,53.8333 224.5,53.1667 225.5,52.5C 224.273,51.4096 223.44,50.0762 223,48.5C 222.085,49.3279 221.419,50.3279 221,51.5C 218.749,49.9705 217.249,47.9705 216.5,45.5C 216.309,40.1007 216.809,34.7674 218,29.5C 218.414,29.0426 218.914,28.7093 219.5,28.5C 220.167,29.5 220.833,30.5 221.5,31.5C 222.086,31.2907 222.586,30.9574 223,30.5C 223.232,31.7375 223.732,32.7375 224.5,33.5 Z"/></g>
<g><path style="opacity:0.878" fill="#f9fbfc" d="M 198.5,43.5 C 199.509,44.9391 199.176,46.2724 197.5,47.5C 199.495,48.2945 201.495,48.9612 203.5,49.5C 206.906,53.3 209.573,57.6333 211.5,62.5C 208.833,63.8333 206.167,63.8333 203.5,62.5C 199.866,56.2102 195.866,50.2102 191.5,44.5C 193.764,43.7814 196.097,43.448 198.5,43.5 Z"/></g>
<g><path style="opacity:1" fill="#da2529" d="M 51.5,57.5 C 51.5,57.1667 51.5,56.8333 51.5,56.5C 51.5191,54.9397 51.8524,53.4397 52.5,52C 51.9915,50.8315 51.1581,49.9981 50,49.5C 48.0254,41.7911 50.3587,39.7911 57,43.5C 60.5137,40.8416 62.347,41.8416 62.5,46.5C 63.5,46.5 64.5,46.5 65.5,46.5C 65.5,47.5 65.5,48.5 65.5,49.5C 62.2784,49.1081 59.2784,49.6081 56.5,51C 57.1667,51.3333 57.8333,51.6667 58.5,52C 54.3504,55.0568 54.6837,57.3901 59.5,59C 56.5624,59.7121 53.8957,59.2121 51.5,57.5 Z"/></g>
<g><path style="opacity:0.938" fill="#f9f9fd" d="M 295.5,24.5 C 301.463,37.0445 306.463,50.0445 310.5,63.5C 307.753,63.8134 305.086,63.48 302.5,62.5C 300.766,58.9628 299.432,55.2961 298.5,51.5C 300.5,51.5 302.5,51.5 304.5,51.5C 303.833,49.5 303.167,47.5 302.5,45.5C 301.5,45.5 300.5,45.5 299.5,45.5C 301.491,39.1734 299.824,34.1734 294.5,30.5C 295.341,28.6208 295.675,26.6208 295.5,24.5 Z"/></g>
<g><path style="opacity:1" fill="#d6272d" d="M 98.5,35.5 C 102.182,35.3347 105.848,35.5014 109.5,36C 110.423,38.0408 110.756,40.2075 110.5,42.5C 105.797,42.4372 101.13,42.7705 96.5,43.5C 96.5,49.1667 96.5,54.8333 96.5,60.5C 91.9725,61.9372 87.3058,62.6039 82.5,62.5C 81.8333,62.5 81.1667,62.5 80.5,62.5C 80.5,59.8333 80.5,57.1667 80.5,54.5C 85.0378,54.8924 89.5378,54.2258 94,52.5C 94.3333,52.8333 94.6667,53.1667 95,53.5C 95.4983,50.1832 95.665,46.8499 95.5,43.5C 95.5774,42.2502 96.244,41.4169 97.5,41C 100.095,40.7744 102.595,40.2744 105,39.5C 105.333,39.8333 105.667,40.1667 106,40.5C 107.188,39.4366 107.688,38.1033 107.5,36.5C 103.76,36.2408 100.094,36.5741 96.5,37.5C 96.1667,37.1667 95.8333,36.8333 95.5,36.5C 96.325,35.6143 97.325,35.281 98.5,35.5 Z"/></g>
<g><path style="opacity:0.208" fill="#9a2d4a" d="M 35.5,48.5 C 32.853,46.1891 30.1864,43.8558 27.5,41.5C 26.503,48.4684 26.1697,55.4684 26.5,62.5C 25.508,55.0182 25.1746,47.3516 25.5,39.5C 30.0714,41.0688 33.4047,44.0688 35.5,48.5 Z"/></g>
<g><path style="opacity:1" fill="#d13337" d="M 35.5,48.5 C 39.45,52.7871 43.45,57.1205 47.5,61.5C 40.5673,63.5855 33.5673,63.9188 26.5,62.5C 26.1697,55.4684 26.503,48.4684 27.5,41.5C 30.1864,43.8558 32.853,46.1891 35.5,48.5 Z"/></g>
<g><path style="opacity:0.518" fill="#a9354c" d="M 45.5,52.5 C 47.5,53.8333 49.5,55.1667 51.5,56.5C 51.5,56.8333 51.5,57.1667 51.5,57.5C 52.2899,58.7942 53.2899,59.9609 54.5,61C 57.8255,61.1719 61.1589,61.0053 64.5,60.5C 64.3433,59.1266 64.51,57.7932 65,56.5C 66.0113,57.3366 67.1779,57.67 68.5,57.5C 67.3272,59.5041 65.6605,61.0041 63.5,62C 60.1667,62.6667 56.8333,62.6667 53.5,62C 50.2463,59.2532 47.5797,56.0865 45.5,52.5 Z"/></g>
<g><path style="opacity:0.824" fill="#fafafc" d="M 261.5,45.5 C 258.098,60.3813 248.765,66.5479 233.5,64C 223.784,61.4543 218.117,55.2876 216.5,45.5C 217.249,47.9705 218.749,49.9705 221,51.5C 221.419,50.3279 222.085,49.3279 223,48.5C 223.44,50.0762 224.273,51.4096 225.5,52.5C 224.5,53.1667 223.5,53.8333 222.5,54.5C 228.105,60.6408 234.938,63.3074 243,62.5C 245.02,61.9681 245.853,60.6348 245.5,58.5C 241.958,58.8128 238.625,58.4794 235.5,57.5C 244.201,58.7607 250.201,55.4274 253.5,47.5C 254.479,46.2347 255.479,44.9014 256.5,43.5C 255.484,40.8663 255.484,38.1996 256.5,35.5C 257.552,35.6495 258.552,35.4828 259.5,35C 258.304,34.3457 258.304,33.8457 259.5,33.5C 259.359,37.4813 260.026,41.4813 261.5,45.5 Z"/></g>
<g><path style="opacity:0.545" fill="#b54457" d="M 112.5,48.5 C 115.565,47.1816 118.731,47.1816 122,48.5C 122.499,53.1548 122.666,57.8215 122.5,62.5C 115.833,63.8333 109.167,63.8333 102.5,62.5C 101.02,54.7661 104.02,50.0995 111.5,48.5C 109.492,50.2676 107.326,51.9343 105,53.5C 104.503,55.8098 104.337,58.1432 104.5,60.5C 109.841,61.7402 115.174,61.7402 120.5,60.5C 120.5,56.5 120.5,52.5 120.5,48.5C 117.833,48.5 115.167,48.5 112.5,48.5 Z"/></g>
<g><path style="opacity:1" fill="#d7262e" d="M 111.5,48.5 C 111.833,48.5 112.167,48.5 112.5,48.5C 115.167,48.5 117.833,48.5 120.5,48.5C 120.5,52.5 120.5,56.5 120.5,60.5C 115.174,61.7402 109.841,61.7402 104.5,60.5C 104.337,58.1432 104.503,55.8098 105,53.5C 107.326,51.9343 109.492,50.2676 111.5,48.5 Z"/></g>
<g><path style="opacity:0.469" fill="#f9fbfe" d="M 296.5,69.5 C 297.809,71.5706 298.475,74.0706 298.5,77C 300.313,83.9825 297.98,86.4825 291.5,84.5C 289.605,82.1329 289.105,79.4663 290,76.5C 291.444,74.8446 293.278,74.178 295.5,74.5C 295.366,72.7085 295.699,71.0418 296.5,69.5 Z M 293.5,76.5 C 295.308,77.9179 295.975,79.9179 295.5,82.5C 294.5,82.5 293.5,82.5 292.5,82.5C 292.325,80.3792 292.659,78.3792 293.5,76.5 Z"/></g>
<g><path style="opacity:0.358" fill="#f9faff" d="M 229.5,70.5 C 233.31,71.7542 233.31,72.7542 229.5,73.5C 229.5,72.5 229.5,71.5 229.5,70.5 Z"/></g>
<g><path style="opacity:0.374" fill="#fdfdff" d="M 304.5,70.5 C 306.355,70.272 307.188,70.9387 307,72.5C 304.192,73.8596 303.359,73.1929 304.5,70.5 Z"/></g>
<g><path style="opacity:0.586" fill="#faf9ff" d="M 68.5,70.5 C 72.31,71.7542 72.31,72.7542 68.5,73.5C 68.5,72.5 68.5,71.5 68.5,70.5 Z"/></g>
<g><path style="opacity:0.672" fill="#fdfcfe" d="M 263.5,71.5 C 264.5,71.5 265.5,71.5 266.5,71.5C 268.114,75.7324 269.447,80.0657 270.5,84.5C 269.5,84.5 268.5,84.5 267.5,84.5C 267.5,83.5 267.5,82.5 267.5,81.5C 265.5,81.5 263.5,81.5 261.5,81.5C 261.767,84.775 260.767,85.6084 258.5,84C 260.071,79.7865 261.737,75.6198 263.5,71.5 Z M 264.5,75.5 C 266.94,78.0783 266.606,79.4116 263.5,79.5C 263.433,78.0413 263.766,76.7079 264.5,75.5 Z"/></g>
<g><path style="opacity:0.506" fill="#f8f9ff" d="M 326.5,70.5 C 327.5,70.5 328.5,70.5 329.5,70.5C 329.5,71.5 329.5,72.5 329.5,73.5C 328.5,73.5 327.5,73.5 326.5,73.5C 326.5,72.5 326.5,71.5 326.5,70.5 Z"/></g>
<g><path style="opacity:0.451" fill="#fbfbff" d="M 89.5,70.5 C 91.0481,70.8212 91.7148,71.8212 91.5,73.5C 88.7524,73.5983 88.0857,72.5983 89.5,70.5 Z"/></g>
<g><path style="opacity:0.717" fill="#f6f6fe" d="M 73.5,74.5 C 77.6004,75.2175 81.6004,75.3841 85.5,75C 87.3018,78.1453 87.9685,81.312 87.5,84.5C 86.5,84.5 85.5,84.5 84.5,84.5C 84.6633,82.1432 84.4966,79.8098 84,77.5C 83.586,77.0426 83.086,76.7093 82.5,76.5C 81.52,79.0865 81.1866,81.7531 81.5,84.5C 80.5,84.5 79.5,84.5 78.5,84.5C 78.6633,82.1432 78.4966,79.8098 78,77.5C 77.586,77.0426 77.086,76.7093 76.5,76.5C 75.52,79.0865 75.1866,81.7531 75.5,84.5C 74.5,84.5 73.5,84.5 72.5,84.5C 72.6765,80.8799 73.0098,77.5466 73.5,74.5 Z"/></g>
<g><path style="opacity:0.64" fill="#fcfbff" d="M 149.5,74.5 C 154.168,73.8394 156.168,75.8394 155.5,80.5C 147.602,80.8864 147.602,81.8864 155.5,83.5C 151.119,86.3189 148.119,85.1522 146.5,80C 147.124,77.9149 148.124,76.0816 149.5,74.5 Z M 150.5,76.5 C 151.756,76.4614 152.756,76.9614 153.5,78C 152.167,78.6667 150.833,78.6667 149.5,78C 150.056,77.6174 150.389,77.1174 150.5,76.5 Z"/></g>
<g><path style="opacity:0.62" fill="#fbfcfe" d="M 201.5,74.5 C 202.5,74.5 203.5,74.5 204.5,74.5C 204.5,77.1667 204.5,79.8333 204.5,82.5C 205.5,82.5 206.5,82.5 207.5,82.5C 207.5,79.8333 207.5,77.1667 207.5,74.5C 208.5,74.5 209.5,74.5 210.5,74.5C 210.82,77.8984 210.487,81.2317 209.5,84.5C 206.376,86.0943 203.876,85.4276 202,82.5C 201.503,79.854 201.336,77.1873 201.5,74.5 Z"/></g>
<g><path style="opacity:0.706" fill="#fbfbff" d="M 245.5,74.5 C 252.833,73.8469 255.499,77.1802 253.5,84.5C 252.5,84.5 251.5,84.5 250.5,84.5C 250.5,81.8333 250.5,79.1667 250.5,76.5C 249.5,76.5 248.5,76.5 247.5,76.5C 247.5,79.1667 247.5,81.8333 247.5,84.5C 246.5,84.5 245.5,84.5 244.5,84.5C 244.253,81.0613 244.586,77.728 245.5,74.5 Z"/></g>
<g><path style="opacity:0.7" fill="#f9fbfe" d="M 279.5,83.5 C 279.489,79.6482 281.489,77.8149 285.5,78C 283.941,77.0201 282.274,76.1867 280.5,75.5C 282.421,74.359 284.421,74.1923 286.5,75C 287.617,78.0731 287.784,81.2397 287,84.5C 284.35,85.7181 281.85,85.3848 279.5,83.5 Z M 282.5,80.5 C 283.675,80.281 284.675,80.6143 285.5,81.5C 283.948,82.7979 282.948,82.4646 282.5,80.5 Z"/></g>
<g><path style="opacity:0.643" fill="#f9fbfe" d="M 311.5,74.5 C 315.757,75.3787 319.924,75.712 324,75.5C 324.667,78.8333 324.667,82.1667 324,85.5C 322.784,83.038 322.118,80.3713 322,77.5C 320.703,76.2164 319.536,76.3831 318.5,78C 319.923,80.62 319.757,83.12 318,85.5C 316.784,83.038 316.118,80.3713 316,77.5C 315.586,77.0426 315.086,76.7093 314.5,76.5C 313.52,79.0865 313.187,81.7531 313.5,84.5C 312.5,84.5 311.5,84.5 310.5,84.5C 310.253,81.0613 310.586,77.728 311.5,74.5 Z"/></g>
<g><path style="opacity:0.24" fill="#f9fbfe" d="M 173.5,74.5 C 175.604,74.2011 177.604,74.5344 179.5,75.5C 178.372,76.2621 177.205,76.9288 176,77.5C 175.503,79.8098 175.337,82.1432 175.5,84.5C 174.5,84.5 173.5,84.5 172.5,84.5C 172.253,81.0613 172.586,77.728 173.5,74.5 Z"/></g>
<g><path style="opacity:0.519" fill="#fcfcff" d="M 279.5,83.5 C 275.176,86.3521 272.176,85.1855 270.5,80C 271.431,75.2137 274.098,73.7137 278.5,75.5C 277.685,77.2759 276.518,77.9426 275,77.5C 274.506,79.1341 274.34,80.8008 274.5,82.5C 276.292,82.366 277.958,82.6993 279.5,83.5 Z"/></g>
<g><path style="opacity:0.663" fill="#f2f5fd" d="M 104.5,74.5 C 111.833,73.8469 114.499,77.1802 112.5,84.5C 111.5,84.5 110.5,84.5 109.5,84.5C 109.663,82.1432 109.497,79.8098 109,77.5C 108.586,77.0426 108.086,76.7093 107.5,76.5C 106.682,79.1071 106.182,81.7737 106,84.5C 105.333,85.8333 104.667,85.8333 104,84.5C 103.253,81.0764 103.42,77.7431 104.5,74.5 Z"/></g>
<g><path style="opacity:1" fill="#f7f8fe" d="M 123.5,74.5 C 129.499,74.002 131.666,76.6687 130,82.5C 125.764,86.652 122.597,85.8187 120.5,80C 121.124,77.9149 122.124,76.0816 123.5,74.5 Z M 124.5,76.5 C 127.966,77.109 128.966,78.9423 127.5,82C 123.537,82.1177 122.537,80.2843 124.5,76.5 Z"/></g>
<g><path style="opacity:0.659" fill="#f9fbff" d="M 222.5,74.5 C 224.604,74.2011 226.604,74.5344 228.5,75.5C 228.167,76.5 227.5,77.1667 226.5,77.5C 225.575,76.3595 224.741,76.3595 224,77.5C 223.506,79.1341 223.34,80.8008 223.5,82.5C 225.288,82.2148 226.955,82.5481 228.5,83.5C 226.295,86.0531 223.962,86.0531 221.5,83.5C 219.992,80.2313 220.325,77.2313 222.5,74.5 Z"/></g>
<g><path style="opacity:0.608" fill="#f9fbfe" d="M 238.5,70.5 C 240.927,71.2789 240.927,72.4455 238.5,74C 242.766,75.3656 244.266,78.1989 243,82.5C 238.416,86.9713 235.249,86.138 233.5,80C 235.202,76.4057 236.869,73.2391 238.5,70.5 Z M 237.5,76.5 C 238.496,76.4142 239.329,76.7476 240,77.5C 240.494,79.1341 240.66,80.8008 240.5,82.5C 239.167,82.5 237.833,82.5 236.5,82.5C 236.325,80.3792 236.659,78.3792 237.5,76.5 Z"/></g>
<g><path style="opacity:0.768" fill="#f6f9fe" d="M 38.5,74.5 C 43.3394,73.6766 45.6728,75.6766 45.5,80.5C 38.3381,80.6128 38.0048,81.6128 44.5,83.5C 42.3755,85.8401 40.0421,85.8401 37.5,83.5C 36.1374,80.3125 36.4708,77.3125 38.5,74.5 Z M 40.5,76.5 C 41.3764,76.3691 42.0431,76.7025 42.5,77.5C 40.1916,78.8734 39.5249,78.5401 40.5,76.5 Z"/></g>
<g><path style="opacity:0.999" fill="#f2f8fd" d="M 88.5,74.5 C 89.5,74.5 90.5,74.5 91.5,74.5C 91.5,77.8333 91.5,81.1667 91.5,84.5C 90.5,84.5 89.5,84.5 88.5,84.5C 88.5,81.1667 88.5,77.8333 88.5,74.5 Z"/></g>
<g><path style="opacity:0.773" fill="#f8f9fe" d="M 95.5,74.5 C 100.294,73.6269 102.627,75.6269 102.5,80.5C 93.7598,80.0931 93.4265,81.0931 101.5,83.5C 97.3936,86.2943 94.3936,85.2943 92.5,80.5C 93.1286,78.2592 94.1286,76.2592 95.5,74.5 Z M 96.5,76.5 C 97.7562,76.4614 98.7562,76.9614 99.5,78C 98.1667,78.6667 96.8333,78.6667 95.5,78C 96.056,77.6174 96.3893,77.1174 96.5,76.5 Z"/></g>
<g><path style="opacity:0.873" fill="#f9fbfe" d="M 182.5,74.5 C 188.178,74.1572 190.344,76.8238 189,82.5C 186.095,86.327 183.095,86.327 180,82.5C 179.023,79.1827 179.856,76.516 182.5,74.5 Z M 183.5,76.5 C 184.496,76.4142 185.329,76.7476 186,77.5C 186.494,79.1341 186.66,80.8008 186.5,82.5C 185.167,82.5 183.833,82.5 182.5,82.5C 182.325,80.3792 182.659,78.3792 183.5,76.5 Z"/></g>
<g><path style="opacity:0.893" fill="#f9fbfe" d="M 162.5,71.5 C 168.986,69.8346 171.819,72.168 171,78.5C 169.103,80.0163 166.936,80.683 164.5,80.5C 164.5,81.8333 164.5,83.1667 164.5,84.5C 163.5,84.5 162.5,84.5 161.5,84.5C 161.231,80.0685 161.564,75.7352 162.5,71.5 Z M 164.5,73.5 C 167.5,73.1667 168.833,74.5 168.5,77.5C 167.167,77.5 165.833,77.5 164.5,77.5C 164.5,76.1667 164.5,74.8333 164.5,73.5 Z"/></g>
<g><path style="opacity:0.63" fill="#fbfcff" d="M 197.5,69.5 C 198.809,71.5706 199.475,74.0706 199.5,77C 201.32,84.2406 198.987,86.574 192.5,84C 189.085,78.1629 190.752,74.8295 197.5,74C 196.587,72.5861 196.587,71.0861 197.5,69.5 Z M 194.5,76.5 C 195.496,76.4142 196.329,76.7476 197,77.5C 197.494,79.1341 197.66,80.8008 197.5,82.5C 196.167,82.5 194.833,82.5 193.5,82.5C 193.325,80.3792 193.659,78.3792 194.5,76.5 Z"/></g>
<g><path style="opacity:0.775" fill="#eef6fc" d="M 68.5,74.5 C 69.4959,74.4142 70.3292,74.7476 71,75.5C 71.498,78.4816 71.6646,81.4816 71.5,84.5C 70.5,84.5 69.5,84.5 68.5,84.5C 68.5,81.1667 68.5,77.8333 68.5,74.5 Z"/></g>
<g><path style="opacity:0.677" fill="#f9fbfe" d="M 143.5,69.5 C 144.117,69.6107 144.617,69.944 145,70.5C 145.828,75.202 145.662,79.8687 144.5,84.5C 137.478,86.3086 134.978,83.642 137,76.5C 138.444,74.8446 140.278,74.178 142.5,74.5C 142.366,72.7085 142.699,71.0418 143.5,69.5 Z M 139.5,76.5 C 140.5,76.5 141.5,76.5 142.5,76.5C 142.5,78.5 142.5,80.5 142.5,82.5C 138.556,82.1156 137.556,80.1156 139.5,76.5 Z"/></g>
<g><path style="opacity:0.98" fill="#f7fbfc" d="M 229.5,74.5 C 230.995,74.4148 231.995,75.0815 232.5,76.5C 232.25,79.292 231.75,82.292 231,85.5C 229.585,82.0418 229.085,78.3751 229.5,74.5 Z"/></g>
<g><path style="opacity:0.996" fill="#f3f9fb" d="M 326.5,74.5 C 327.5,74.5 328.5,74.5 329.5,74.5C 329.5,77.8333 329.5,81.1667 329.5,84.5C 328.5,84.5 327.5,84.5 326.5,84.5C 326.5,81.1667 326.5,77.8333 326.5,74.5 Z"/></g>
<g><path style="opacity:0.914" fill="#f4f7fd" d="M 338.5,82.5 C 339.29,79.4527 341.29,77.786 344.5,77.5C 343.167,76.8333 341.833,76.1667 340.5,75.5C 342.949,74.0903 345.116,74.4237 347,76.5C 348.922,85.8486 346.089,87.8486 338.5,82.5 Z M 342.5,80.5 C 343.756,80.4614 344.756,80.9614 345.5,82C 344.167,82.6667 342.833,82.6667 341.5,82C 342.056,81.6174 342.389,81.1174 342.5,80.5 Z"/></g>
<g><path style="opacity:0.908" fill="#f3f5fc" d="M 28.5,71.5 C 31.0728,71.1485 33.4062,71.6485 35.5,73C 33.5273,73.4955 31.5273,73.6621 29.5,73.5C 29.281,74.675 29.6143,75.675 30.5,76.5C 34.3234,77.4675 35.8234,79.8008 35,83.5C 32.0851,86.1345 29.2517,86.1345 26.5,83.5C 28.5,82.8333 30.5,82.1667 32.5,81.5C 30.5721,79.9501 28.7387,78.2834 27,76.5C 26.3872,74.5048 26.8872,72.8381 28.5,71.5 Z"/></g>
<g><path style="opacity:0.547" fill="#fcfcfe" d="M 214.5,74.5 C 220.882,74.7718 221.048,75.7718 215,77.5C 213.948,81.2928 215.448,83.2928 219.5,83.5C 216.899,85.9471 214.399,85.6138 212,82.5C 211.018,79.2253 211.851,76.5586 214.5,74.5 Z"/></g>
<g><path style="opacity:0.782" fill="#f7fafe" d="M 57.5,74.5 C 58.5,74.5 59.5,74.5 60.5,74.5C 60.5,77.1667 60.5,79.8333 60.5,82.5C 61.5,82.5 62.5,82.5 63.5,82.5C 63.5,79.8333 63.5,77.1667 63.5,74.5C 64.5,74.5 65.5,74.5 66.5,74.5C 66.8204,77.8984 66.487,81.2317 65.5,84.5C 62.3761,86.0943 59.8761,85.4276 58,82.5C 57.5026,79.854 57.3359,77.1873 57.5,74.5 Z"/></g>
<g><path style="opacity:0.591" fill="#f7f9fe" d="M 302.5,74.5 C 307.339,73.6766 309.673,75.6766 309.5,80.5C 302.338,80.6128 302.005,81.6128 308.5,83.5C 304.215,86.3746 301.215,85.208 299.5,80C 300.124,77.9149 301.124,76.0816 302.5,74.5 Z M 303.5,76.5 C 305.983,76.73 306.483,77.3966 305,78.5C 303.97,78.1639 303.47,77.4972 303.5,76.5 Z"/></g>
<g><path style="opacity:0.699" fill="#f9f9ff" d="M 338.5,82.5 C 338.5,83.5 338.5,84.5 338.5,85.5C 332.623,85.7943 330.123,83.1276 331,77.5C 332.933,74.6145 335.433,73.9479 338.5,75.5C 338.192,76.3081 337.692,76.9747 337,77.5C 336,76.1667 335,76.1667 334,77.5C 332.823,81.4918 334.323,83.1584 338.5,82.5 Z"/></g>
<g><path style="opacity:0.893" fill="#f4f6fe" d="M 114.5,71.5 C 116.048,71.8212 116.715,72.8212 116.5,74.5C 121.833,75.1667 121.833,75.8333 116.5,76.5C 116.5,78.5 116.5,80.5 116.5,82.5C 117.978,82.238 119.311,82.5713 120.5,83.5C 119.252,85.69 117.586,86.0234 115.5,84.5C 113.927,80.1877 113.593,75.8544 114.5,71.5 Z"/></g>
<g><path style="opacity:0.786" fill="#f4f7fc" d="M 49.5,74.5 C 51.5,74.5 53.5,74.5 55.5,74.5C 55.6655,78.5138 55.4988,82.5138 55,86.5C 52.8646,88.2785 50.3646,88.9452 47.5,88.5C 47.5,87.5 47.5,86.5 47.5,85.5C 48.8221,85.33 49.9887,85.6634 51,86.5C 51.5,86 52,85.5 52.5,85C 45.9857,83.1119 44.9857,79.6119 49.5,74.5 Z M 50.5,76.5 C 52.2926,76.8836 53.2926,78.0503 53.5,80C 51.8524,83.3537 50.5191,83.187 49.5,79.5C 49.685,78.4163 50.0183,77.4163 50.5,76.5 Z"/></g>
</svg>
